<svg height="480pt" viewBox="0 -4 480 480" width="480pt" xmlns="http://www.w3.org/2000/svg"><path d="m48 256v208h384v-208zm0 0" fill="#00ccb3"/><path d="m232 368h144v64h-144zm0 0" fill="#d8d7da"/><path d="m96 368h80v96h-80zm0 0" fill="#d8d7da"/><path d="m416 136 48 96h-448l48-96zm0 0" fill="#1e81ce"/><path d="m464 232v32h-448v-32zm0 0" fill="#3d9ae2"/><path d="m400 264v16c0 17.671875-14.328125 32-32 32s-32-14.328125-32-32v-16zm0 0" fill="#ff9811"/><path d="m272 264v16c0 17.671875-14.328125 32-32 32s-32-14.328125-32-32v-16zm0 0" fill="#ff9811"/><path d="m144 264v16c0 17.671875-14.328125 32-32 32s-32-14.328125-32-32v-16zm0 0" fill="#ff9811"/><g fill="#5aaae7"><path d="m464 264v16c0 17.671875-14.328125 32-32 32s-32-14.328125-32-32v-16zm0 0"/><path d="m336 264v16c0 17.671875-14.328125 32-32 32s-32-14.328125-32-32v-16zm0 0"/><path d="m208 264v16c0 17.671875-14.328125 32-32 32s-32-14.328125-32-32v-16zm0 0"/><path d="m80 264v16c0 17.671875-14.328125 32-32 32s-32-14.328125-32-32v-16zm0 0"/></g><path d="m104 0h272v208h-272zm0 0" fill="#ff6243"/><path d="m231.039062 39.441406c5.382813 3.757813 12.539063 3.757813 17.921876 0 8.65625-6.257812 19.480468-8.742187 30-6.882812 16.644531 3.019531 29.621093 16.128906 32.480468 32.800781 1.472656 8.621094.039063 17.488281-4.082031 25.199219-8.554687 15.71875-13.984375 32.941406-16 50.722656l-1.917969 19.597656c-1.167968 8.65625-8.769531 14.972656-17.492187 14.535156-8.722657-.4375-15.65625-7.484374-15.949219-16.214843v-23.199219c-.066406-8.808594-7.191406-15.933594-16-16-8.824219.027344-15.972656 7.175781-16 16v23.199219c-.292969 8.730469-7.226562 15.777343-15.949219 16.214843-8.722656.4375-16.324219-5.878906-17.492187-14.535156l-1.917969-19.597656c-2.015625-17.78125-7.445313-35.003906-16-50.722656-4.121094-7.710938-5.554687-16.578125-4.082031-25.199219 2.859375-16.671875 15.835937-29.78125 32.480468-32.800781 10.519532-1.859375 21.34375.625 30 6.882812zm0 0" fill="#e6e7e8"/><path d="m0 456h480v16h-480zm0 0" fill="#009986"/><path d="m240 72c-9.375.097656-18.667969-1.777344-27.273438-5.503906l6.578126-14.585938c13.285156 5.347656 28.128906 5.347656 41.414062 0l6.5625 14.585938c-8.609375 3.726562-17.902344 5.601562-27.28125 5.503906zm0 0" fill="#fff"/></svg>