<?xml version="1.0" encoding="iso-8859-1"?>
<!-- Generator: Adobe Illustrator 19.0.0, SVG Export Plug-In . SVG Version: 6.00 Build 0)  -->
<svg version="1.1" id="Capa_1" xmlns="http://www.w3.org/2000/svg" xmlns:xlink="http://www.w3.org/1999/xlink" x="0px" y="0px"
	 viewBox="0 0 496 496" style="enable-background:new 0 0 496 496;" xml:space="preserve">
<path style="fill:#AFB8C9;" d="M400,88V40H224v48h-32V40c0-17.672,14.328-32,32-32h176c17.672,0,32,14.328,32,32v48H400z"/>
<g>
	<rect x="400" y="48" style="fill:#8C95A4;" width="32" height="40"/>
	<rect x="192" y="48" style="fill:#8C95A4;" width="32" height="40"/>
</g>
<path style="fill:#EABD8C;" d="M456,72H168c-17.672,0-32,14.328-32,32v80v216v56c0,17.672,14.328,32,32,32h288
	c17.672,0,32-14.328,32-32V104C488,86.328,473.672,72,456,72z"/>
<path style="fill:#D3A06C;" d="M144,320v82.24c0,12,9.76,21.76,21.76,21.76c9.68,0,18.064-6.224,20.848-15.504l13.672-45.592
	c4.448-14.832,12.584-28.456,23.536-39.408C244.568,302.744,256,275.152,256,245.808v-9.832c0-37.48-30.496-67.976-67.976-67.976
	c-12.568,0-25.112,3.632-36.264,10.496C145.912,182.104,140.464,184,136,184v128C140.416,312,144,315.584,144,320z"/>
<polygon style="fill:#ECECEC;" points="168,104 168,392 168,456 376,456 456,376 456,104 "/>
<g>
	<path style="fill:#B6C1CE;" d="M188.024,168c-6.76,0-13.488,1.136-20.024,3.168V392v31.824c8.704-0.888,16.04-6.776,18.608-15.328
		l13.672-45.592c4.448-14.832,12.584-28.456,23.536-39.408C244.568,302.744,256,275.152,256,245.808v-9.832
		C256,198.496,225.504,168,188.024,168z"/>
	<polygon style="fill:#B6C1CE;" points="336,456 376,456 376,376 	"/>
</g>
<polygon style="fill:#FEA82F;" points="376,456 376,376 456,376 "/>
<rect x="232" y="72" style="fill:#FCD770;" width="160" height="64"/>
<rect x="232" y="112" style="fill:#FFC729;" width="160" height="24"/>
<path style="fill:#ECECEC;" d="M67.976,176c11.36,0,22.4,3.352,32.072,9.312C105.76,188.832,112.88,192,120,192
	c7.12,0,14.24-3.168,19.952-6.688c9.68-5.96,20.712-9.312,32.072-9.312l0,0C205.152,176,232,202.848,232,235.976v9.832
	c0,27.016-10.736,52.928-29.84,72.04l0,0c-11.92,11.92-20.696,26.616-25.544,42.76l-13.68,45.592c-1.744,5.816-7.096,9.8-13.176,9.8
	l0,0c-7.6,0-13.76-6.16-13.76-13.76V320c0-8.84-7.16-16-16-16l0,0c-8.84,0-16,7.16-16,16v82.24c0,7.6-6.16,13.76-13.76,13.76l0,0
	c-6.08,0-11.432-3.984-13.184-9.808L63.376,360.6c-4.84-16.144-13.616-30.84-25.536-42.76l0,0C18.736,298.736,8,272.824,8,245.8
	v-9.832C8,202.848,34.848,176,67.976,176L67.976,176z"/>
<path style="fill:#B6C1CE;" d="M120,280c-43,0-82.104-11.64-111.824-30.624c0.904,25.712,11.408,50.2,29.664,68.464
	c11.92,11.92,20.696,26.616,25.544,42.76l13.68,45.592C78.808,412.016,84.16,416,90.24,416c7.6,0,13.76-6.16,13.76-13.76V320
	c0-8.84,7.16-16,16-16s16,7.16,16,16v82.24c0,7.6,6.16,13.76,13.76,13.76c6.08,0,11.432-3.984,13.184-9.808l13.68-45.592
	c4.848-16.144,13.624-30.84,25.544-42.76c18.256-18.256,28.752-42.744,29.664-68.464C202.104,268.36,163,280,120,280z"/>
<rect x="208" y="384" width="16" height="16"/>
<rect x="192" y="400" width="16" height="16"/>
<rect x="208" y="416" width="16" height="16"/>
<rect x="224" y="400" width="16" height="16"/>
<path d="M456,64h-16V40c0-22.056-17.944-40-40-40H224c-22.056,0-40,17.944-40,40v24h-16c-22.056,0-40,17.944-40,40v78.328
	c-2.888,1.072-5.592,1.672-8,1.672c-4.464,0-9.912-1.904-15.76-5.504C93.088,171.632,80.552,168,67.976,168
	C30.496,168,0,198.496,0,235.976v9.832c0,29.344,11.432,56.944,32.184,77.696c10.952,10.952,19.088,24.576,23.528,39.408
	l13.68,45.584C72.176,417.768,80.552,424,90.24,424c12,0,21.76-9.76,21.76-21.76V320c0-4.408,3.592-8,8-8c4.408,0,8,3.592,8,8v80
	v2.24V456c0,22.056,17.944,40,40,40h288c22.056,0,40-17.944,40-40V104C496,81.944,478.056,64,456,64z M200,40
	c0-13.232,10.768-24,24-24h176c13.232,0,24,10.768,24,24v24h-16V32H216v32h-16V40z M448,368h-80v80H176v-56h-0.448l8.728-29.104
	c4.448-14.832,12.584-28.456,23.528-39.4c6.32-6.32,11.656-13.328,16.184-20.768V304h208v-16h-200.36
	c2.152-5.168,3.776-10.536,5.112-16H432v-16H239.504c0.304-3.376,0.496-6.768,0.496-10.2V240h64v-16h-65.12
	c-1-5.6-2.68-10.96-4.968-16H304v-16h-80v0.256c-5.568-6.608-12.368-12.152-20.048-16.256H432v-16H192v11.008
	c-5.096-1.568-10.472-2.48-16-2.8V112h48v32h176v-32h48V368z M436.688,384L384,436.688V384H436.688z M392,64H232V48h160V64z
	 M384,128H240V80h144V128z M168,80h56v16h-64v73.24c-5.456,1.008-10.84,2.584-16,4.912V104C144,90.768,154.768,80,168,80z M120,296
	c-13.232,0-24,10.768-24,24v82.24c0,3.176-2.584,5.76-5.76,5.76c-2.56,0-4.784-1.648-5.512-4.112l-13.68-45.584
	C65.84,340.952,56.32,325,43.504,312.184C25.768,294.456,16,270.872,16,245.8v-9.832C16,207.32,39.32,184,67.976,184
	c9.616,0,19.248,2.808,27.88,8.128c16.976,10.456,31.32,10.456,48.296,0c8.624-5.32,18.264-8.128,27.872-8.128
	C200.68,184,224,207.32,224,235.976v9.832c0,25.072-9.768,48.656-27.496,66.384c-12.816,12.816-22.336,28.76-27.544,46.12
	l-13.68,45.592c-0.736,2.448-2.952,4.096-5.52,4.096c-3.176,0-5.76-2.584-5.76-5.76V400v-80C144,306.768,133.232,296,120,296z
	 M480,456c0,13.232-10.768,24-24,24H168c-13.232,0-24-10.768-24-24v-32.872c1.848,0.512,3.752,0.872,5.76,0.872
	c3.68,0,7.168-0.912,10.24-2.536V464h219.312L464,379.312V96h-64V80h56c13.232,0,24,10.768,24,24V456z"/>
<rect x="32" y="96" width="16" height="16"/>
<rect x="16" y="112" width="16" height="16"/>
<rect x="32" y="128" width="16" height="16"/>
<rect x="48" y="112" width="16" height="16"/>
<rect x="224" y="320" width="176" height="16"/>
<rect x="320" y="192" width="112" height="16"/>
<rect x="320" y="224" width="112" height="16"/>
<path d="M155.312,203.968c-23.952,15.968-46.672,15.96-70.616,0.008l-8.872,13.312C90.472,227.048,105.336,232,120,232
	c14.672,0,29.536-4.952,44.184-14.72L155.312,203.968z"/>
<rect x="416" y="320" width="16" height="16"/>
<g>
</g>
<g>
</g>
<g>
</g>
<g>
</g>
<g>
</g>
<g>
</g>
<g>
</g>
<g>
</g>
<g>
</g>
<g>
</g>
<g>
</g>
<g>
</g>
<g>
</g>
<g>
</g>
<g>
</g>
</svg>
